<mxfile host="Electron" modified="2024-04-11T14:52:19.113Z" agent="Mozilla/5.0 (Windows NT 10.0; Win64; x64) AppleWebKit/537.36 (KHTML, like Gecko) draw.io/24.1.0 Chrome/120.0.6099.109 Electron/28.1.0 Safari/537.36" etag="ooQ0PP6S7smUrtgnMco9" version="24.1.0" type="device">
  <diagram name="Page-1" id="YTIz51-vmuBzOdCrU7fn">
    <mxGraphModel dx="721" dy="415" grid="1" gridSize="10" guides="1" tooltips="1" connect="1" arrows="1" fold="1" page="1" pageScale="1" pageWidth="850" pageHeight="1100" math="0" shadow="0">
      <root>
        <mxCell id="0" />
        <mxCell id="1" parent="0" />
        <mxCell id="KfAJ2f1x3CQTypNjE7IO-149" style="edgeStyle=orthogonalEdgeStyle;rounded=0;orthogonalLoop=1;jettySize=auto;html=1;entryX=0.188;entryY=0.503;entryDx=0;entryDy=0;entryPerimeter=0;" edge="1" parent="1" source="KfAJ2f1x3CQTypNjE7IO-121" target="KfAJ2f1x3CQTypNjE7IO-143">
          <mxGeometry relative="1" as="geometry" />
        </mxCell>
        <mxCell id="KfAJ2f1x3CQTypNjE7IO-147" style="edgeStyle=orthogonalEdgeStyle;rounded=0;orthogonalLoop=1;jettySize=auto;html=1;entryX=0.162;entryY=0.564;entryDx=0;entryDy=0;entryPerimeter=0;" edge="1" parent="1" source="KfAJ2f1x3CQTypNjE7IO-121" target="KfAJ2f1x3CQTypNjE7IO-142">
          <mxGeometry relative="1" as="geometry">
            <Array as="points">
              <mxPoint x="461" y="264" />
            </Array>
          </mxGeometry>
        </mxCell>
        <mxCell id="KfAJ2f1x3CQTypNjE7IO-146" style="edgeStyle=orthogonalEdgeStyle;rounded=0;orthogonalLoop=1;jettySize=auto;html=1;" edge="1" parent="1">
          <mxGeometry relative="1" as="geometry">
            <mxPoint x="674.3699999999999" y="262.30555555555554" as="sourcePoint" />
            <mxPoint x="390" y="208.5" as="targetPoint" />
            <Array as="points">
              <mxPoint x="391" y="262.5" />
              <mxPoint x="391" y="208.5" />
            </Array>
          </mxGeometry>
        </mxCell>
        <mxCell id="KfAJ2f1x3CQTypNjE7IO-144" style="edgeStyle=orthogonalEdgeStyle;rounded=0;orthogonalLoop=1;jettySize=auto;html=1;entryX=0.101;entryY=0.463;entryDx=0;entryDy=0;entryPerimeter=0;" edge="1" parent="1" source="KfAJ2f1x3CQTypNjE7IO-121" target="KfAJ2f1x3CQTypNjE7IO-138">
          <mxGeometry relative="1" as="geometry" />
        </mxCell>
        <mxCell id="16FIuzxWoAcxYkZVvPK7-2" value="VEHICULOS" style="rounded=0;whiteSpace=wrap;html=1;" parent="1" vertex="1">
          <mxGeometry x="350" y="40" width="80" height="20" as="geometry" />
        </mxCell>
        <mxCell id="KfAJ2f1x3CQTypNjE7IO-6" value="Cuatriciclo" style="rounded=0;whiteSpace=wrap;html=1;" vertex="1" parent="1">
          <mxGeometry x="220" y="185" width="62.5" height="20" as="geometry" />
        </mxCell>
        <mxCell id="KfAJ2f1x3CQTypNjE7IO-7" value="Triciclo" style="rounded=0;whiteSpace=wrap;html=1;" vertex="1" parent="1">
          <mxGeometry x="290" y="185" width="62.5" height="20" as="geometry" />
        </mxCell>
        <mxCell id="KfAJ2f1x3CQTypNjE7IO-8" value="Bicicleta" style="rounded=0;whiteSpace=wrap;html=1;" vertex="1" parent="1">
          <mxGeometry x="360" y="185" width="62.5" height="20" as="geometry" />
        </mxCell>
        <mxCell id="KfAJ2f1x3CQTypNjE7IO-9" value="Monociclo" style="rounded=0;whiteSpace=wrap;html=1;" vertex="1" parent="1">
          <mxGeometry x="430" y="185" width="62.5" height="20" as="geometry" />
        </mxCell>
        <mxCell id="KfAJ2f1x3CQTypNjE7IO-10" value="Monopatin" style="rounded=0;whiteSpace=wrap;html=1;" vertex="1" parent="1">
          <mxGeometry x="500" y="185" width="62.5" height="20" as="geometry" />
        </mxCell>
        <mxCell id="KfAJ2f1x3CQTypNjE7IO-13" value="" style="endArrow=none;html=1;rounded=0;entryX=0.5;entryY=0;entryDx=0;entryDy=0;" edge="1" parent="1" target="KfAJ2f1x3CQTypNjE7IO-7">
          <mxGeometry width="50" height="50" relative="1" as="geometry">
            <mxPoint x="321" y="175" as="sourcePoint" />
            <mxPoint x="425" y="165" as="targetPoint" />
          </mxGeometry>
        </mxCell>
        <mxCell id="KfAJ2f1x3CQTypNjE7IO-14" value="" style="endArrow=none;html=1;rounded=0;entryX=0.5;entryY=0;entryDx=0;entryDy=0;" edge="1" parent="1">
          <mxGeometry width="50" height="50" relative="1" as="geometry">
            <mxPoint x="391.14" y="175" as="sourcePoint" />
            <mxPoint x="391.14" y="185" as="targetPoint" />
          </mxGeometry>
        </mxCell>
        <mxCell id="KfAJ2f1x3CQTypNjE7IO-15" value="" style="endArrow=none;html=1;rounded=0;entryX=0.5;entryY=0;entryDx=0;entryDy=0;" edge="1" parent="1">
          <mxGeometry width="50" height="50" relative="1" as="geometry">
            <mxPoint x="461.14" y="175" as="sourcePoint" />
            <mxPoint x="461.14" y="185" as="targetPoint" />
          </mxGeometry>
        </mxCell>
        <mxCell id="KfAJ2f1x3CQTypNjE7IO-16" value="" style="endArrow=none;html=1;rounded=0;entryX=0.5;entryY=0;entryDx=0;entryDy=0;" edge="1" parent="1">
          <mxGeometry width="50" height="50" relative="1" as="geometry">
            <mxPoint x="537.39" y="175" as="sourcePoint" />
            <mxPoint x="537.39" y="185" as="targetPoint" />
          </mxGeometry>
        </mxCell>
        <mxCell id="KfAJ2f1x3CQTypNjE7IO-20" value="&lt;font style=&quot;font-size: 6px;&quot;&gt;Tipo de Rodado&lt;/font&gt;" style="text;html=1;align=center;verticalAlign=middle;whiteSpace=wrap;rounded=0;" vertex="1" parent="1">
          <mxGeometry x="272.5" y="60" width="60" height="2.5" as="geometry" />
        </mxCell>
        <mxCell id="KfAJ2f1x3CQTypNjE7IO-22" value="&lt;font style=&quot;font-size: 10px;&quot;&gt;Tipo de Rodado&lt;/font&gt;" style="rounded=0;whiteSpace=wrap;html=1;" vertex="1" parent="1">
          <mxGeometry x="35.620000000000005" y="5" width="78.75" height="20" as="geometry" />
        </mxCell>
        <mxCell id="KfAJ2f1x3CQTypNjE7IO-28" value="" style="edgeStyle=orthogonalEdgeStyle;rounded=0;orthogonalLoop=1;jettySize=auto;html=1;" edge="1" parent="1" source="KfAJ2f1x3CQTypNjE7IO-25" target="KfAJ2f1x3CQTypNjE7IO-22">
          <mxGeometry relative="1" as="geometry">
            <Array as="points">
              <mxPoint x="35" y="40" />
              <mxPoint x="75" y="40" />
            </Array>
          </mxGeometry>
        </mxCell>
        <mxCell id="KfAJ2f1x3CQTypNjE7IO-25" value="TamaÃ±o de Rodado" style="ellipse;whiteSpace=wrap;html=1;" vertex="1" parent="1">
          <mxGeometry y="55" width="70" height="40" as="geometry" />
        </mxCell>
        <mxCell id="KfAJ2f1x3CQTypNjE7IO-29" value="" style="edgeStyle=orthogonalEdgeStyle;rounded=0;orthogonalLoop=1;jettySize=auto;html=1;" edge="1" parent="1" source="KfAJ2f1x3CQTypNjE7IO-26" target="KfAJ2f1x3CQTypNjE7IO-22">
          <mxGeometry relative="1" as="geometry">
            <Array as="points">
              <mxPoint x="115" y="40" />
              <mxPoint x="75" y="40" />
            </Array>
          </mxGeometry>
        </mxCell>
        <mxCell id="KfAJ2f1x3CQTypNjE7IO-26" value="Identificador" style="ellipse;whiteSpace=wrap;html=1;" vertex="1" parent="1">
          <mxGeometry x="80" y="55" width="70" height="40" as="geometry" />
        </mxCell>
        <mxCell id="KfAJ2f1x3CQTypNjE7IO-30" value="" style="rhombus;whiteSpace=wrap;html=1;strokeWidth=2;fillWeight=-1;hachureGap=8;fillStyle=cross-hatch;fillColor=#006600;sketch=1;" vertex="1" parent="1">
          <mxGeometry x="430" y="42.5" width="30" height="15" as="geometry" />
        </mxCell>
        <mxCell id="KfAJ2f1x3CQTypNjE7IO-32" value="Chasis" style="rounded=0;whiteSpace=wrap;html=1;" vertex="1" parent="1">
          <mxGeometry x="490" y="40" width="60" height="20" as="geometry" />
        </mxCell>
        <mxCell id="KfAJ2f1x3CQTypNjE7IO-62" value="" style="ellipse;whiteSpace=wrap;html=1;aspect=fixed;" vertex="1" parent="1">
          <mxGeometry x="352.5" y="10" width="10" height="10" as="geometry" />
        </mxCell>
        <mxCell id="KfAJ2f1x3CQTypNjE7IO-63" value="" style="endArrow=none;html=1;rounded=0;entryX=0.5;entryY=1;entryDx=0;entryDy=0;exitX=0.061;exitY=0.002;exitDx=0;exitDy=0;exitPerimeter=0;" edge="1" parent="1" target="KfAJ2f1x3CQTypNjE7IO-62">
          <mxGeometry width="50" height="50" relative="1" as="geometry">
            <mxPoint x="357" y="40" as="sourcePoint" />
            <mxPoint x="355" y="30" as="targetPoint" />
          </mxGeometry>
        </mxCell>
        <mxCell id="KfAJ2f1x3CQTypNjE7IO-64" value="&lt;font style=&quot;font-size: 10px;&quot;&gt;Tipo de Material&lt;/font&gt;" style="rounded=0;whiteSpace=wrap;html=1;" vertex="1" parent="1">
          <mxGeometry x="1088.12" y="127.5" width="78.75" height="20" as="geometry" />
        </mxCell>
        <mxCell id="KfAJ2f1x3CQTypNjE7IO-72" value="" style="edgeStyle=orthogonalEdgeStyle;rounded=0;orthogonalLoop=1;jettySize=auto;html=1;" edge="1" parent="1" source="KfAJ2f1x3CQTypNjE7IO-67" target="KfAJ2f1x3CQTypNjE7IO-64">
          <mxGeometry relative="1" as="geometry" />
        </mxCell>
        <mxCell id="KfAJ2f1x3CQTypNjE7IO-67" value="Madera" style="ellipse;whiteSpace=wrap;html=1;" vertex="1" parent="1">
          <mxGeometry x="1046.25" y="182.5" width="80" height="30" as="geometry" />
        </mxCell>
        <mxCell id="KfAJ2f1x3CQTypNjE7IO-73" value="" style="edgeStyle=orthogonalEdgeStyle;rounded=0;orthogonalLoop=1;jettySize=auto;html=1;" edge="1" parent="1" source="KfAJ2f1x3CQTypNjE7IO-69" target="KfAJ2f1x3CQTypNjE7IO-64">
          <mxGeometry relative="1" as="geometry" />
        </mxCell>
        <mxCell id="KfAJ2f1x3CQTypNjE7IO-69" value="Plastico" style="ellipse;whiteSpace=wrap;html=1;" vertex="1" parent="1">
          <mxGeometry x="1133.75" y="182.5" width="80" height="30" as="geometry" />
        </mxCell>
        <mxCell id="KfAJ2f1x3CQTypNjE7IO-70" value="Metal" style="ellipse;whiteSpace=wrap;html=1;" vertex="1" parent="1">
          <mxGeometry x="960" y="182.5" width="80" height="30" as="geometry" />
        </mxCell>
        <mxCell id="KfAJ2f1x3CQTypNjE7IO-71" value="Identificador" style="ellipse;whiteSpace=wrap;html=1;" vertex="1" parent="1">
          <mxGeometry x="1221.25" y="182.5" width="80" height="30" as="geometry" />
        </mxCell>
        <mxCell id="KfAJ2f1x3CQTypNjE7IO-74" value="" style="endArrow=none;html=1;rounded=0;exitX=0.5;exitY=0;exitDx=0;exitDy=0;" edge="1" parent="1" source="KfAJ2f1x3CQTypNjE7IO-70">
          <mxGeometry width="50" height="50" relative="1" as="geometry">
            <mxPoint x="1005.62" y="172.5" as="sourcePoint" />
            <mxPoint x="1089.37" y="162.5" as="targetPoint" />
            <Array as="points">
              <mxPoint x="999.37" y="162.5" />
            </Array>
          </mxGeometry>
        </mxCell>
        <mxCell id="KfAJ2f1x3CQTypNjE7IO-75" value="" style="endArrow=none;html=1;rounded=0;exitX=0.5;exitY=0;exitDx=0;exitDy=0;" edge="1" parent="1" source="KfAJ2f1x3CQTypNjE7IO-71">
          <mxGeometry width="50" height="50" relative="1" as="geometry">
            <mxPoint x="1029.37" y="172.5" as="sourcePoint" />
            <mxPoint x="1169.37" y="162.5" as="targetPoint" />
            <Array as="points">
              <mxPoint x="1261.37" y="162.5" />
            </Array>
          </mxGeometry>
        </mxCell>
        <mxCell id="KfAJ2f1x3CQTypNjE7IO-76" value="" style="ellipse;whiteSpace=wrap;html=1;aspect=fixed;" vertex="1" parent="1">
          <mxGeometry x="366.25" y="155" width="10" height="10" as="geometry" />
        </mxCell>
        <mxCell id="KfAJ2f1x3CQTypNjE7IO-77" value="" style="endArrow=none;html=1;rounded=0;entryX=0.5;entryY=1;entryDx=0;entryDy=0;exitX=0.061;exitY=0.002;exitDx=0;exitDy=0;exitPerimeter=0;" edge="1" parent="1" target="KfAJ2f1x3CQTypNjE7IO-76">
          <mxGeometry width="50" height="50" relative="1" as="geometry">
            <mxPoint x="370.75" y="185" as="sourcePoint" />
            <mxPoint x="368.75" y="175" as="targetPoint" />
          </mxGeometry>
        </mxCell>
        <mxCell id="KfAJ2f1x3CQTypNjE7IO-78" value="&lt;font style=&quot;font-size: 6px;&quot;&gt;Caracteristicas de Bicicletas&lt;/font&gt;" style="text;html=1;align=center;verticalAlign=middle;whiteSpace=wrap;rounded=0;" vertex="1" parent="1">
          <mxGeometry x="306.25" y="140" width="63.75" height="30" as="geometry" />
        </mxCell>
        <mxCell id="KfAJ2f1x3CQTypNjE7IO-79" value="&lt;font style=&quot;font-size: 10px;&quot;&gt;Caracteristicas de Bicicletas&lt;/font&gt;" style="rounded=0;whiteSpace=wrap;html=1;" vertex="1" parent="1">
          <mxGeometry x="1091.25" y="15" width="78.75" height="35" as="geometry" />
        </mxCell>
        <mxCell id="KfAJ2f1x3CQTypNjE7IO-80" value="" style="edgeStyle=orthogonalEdgeStyle;rounded=0;orthogonalLoop=1;jettySize=auto;html=1;" edge="1" parent="1" source="KfAJ2f1x3CQTypNjE7IO-81" target="KfAJ2f1x3CQTypNjE7IO-79">
          <mxGeometry relative="1" as="geometry">
            <Array as="points">
              <mxPoint x="1091" y="70" />
              <mxPoint x="1131" y="70" />
            </Array>
          </mxGeometry>
        </mxCell>
        <mxCell id="KfAJ2f1x3CQTypNjE7IO-81" value="Rigida" style="ellipse;whiteSpace=wrap;html=1;" vertex="1" parent="1">
          <mxGeometry x="1055.63" y="80" width="70" height="40" as="geometry" />
        </mxCell>
        <mxCell id="KfAJ2f1x3CQTypNjE7IO-82" value="" style="edgeStyle=orthogonalEdgeStyle;rounded=0;orthogonalLoop=1;jettySize=auto;html=1;" edge="1" parent="1" source="KfAJ2f1x3CQTypNjE7IO-83" target="KfAJ2f1x3CQTypNjE7IO-79">
          <mxGeometry relative="1" as="geometry">
            <Array as="points">
              <mxPoint x="1171" y="70" />
              <mxPoint x="1131" y="70" />
            </Array>
          </mxGeometry>
        </mxCell>
        <mxCell id="KfAJ2f1x3CQTypNjE7IO-83" value="Plegable" style="ellipse;whiteSpace=wrap;html=1;" vertex="1" parent="1">
          <mxGeometry x="1135.63" y="80" width="70" height="40" as="geometry" />
        </mxCell>
        <mxCell id="KfAJ2f1x3CQTypNjE7IO-84" value="" style="ellipse;whiteSpace=wrap;html=1;aspect=fixed;" vertex="1" parent="1">
          <mxGeometry x="490" y="10" width="10" height="10" as="geometry" />
        </mxCell>
        <mxCell id="KfAJ2f1x3CQTypNjE7IO-85" value="" style="endArrow=none;html=1;rounded=0;entryX=0.5;entryY=1;entryDx=0;entryDy=0;exitX=0.061;exitY=0.002;exitDx=0;exitDy=0;exitPerimeter=0;" edge="1" parent="1" target="KfAJ2f1x3CQTypNjE7IO-84">
          <mxGeometry width="50" height="50" relative="1" as="geometry">
            <mxPoint x="494.5" y="40" as="sourcePoint" />
            <mxPoint x="492.5" y="30" as="targetPoint" />
          </mxGeometry>
        </mxCell>
        <mxCell id="KfAJ2f1x3CQTypNjE7IO-87" value="&lt;font style=&quot;font-size: 6px;&quot;&gt;Tipo de Material&lt;/font&gt;" style="text;html=1;align=center;verticalAlign=middle;whiteSpace=wrap;rounded=0;" vertex="1" parent="1">
          <mxGeometry x="297.5" y="15" width="60" as="geometry" />
        </mxCell>
        <mxCell id="KfAJ2f1x3CQTypNjE7IO-88" value="&lt;font style=&quot;font-size: 6px;&quot;&gt;Tipo de Material&lt;/font&gt;" style="text;html=1;align=center;verticalAlign=middle;whiteSpace=wrap;rounded=0;" vertex="1" parent="1">
          <mxGeometry x="430" y="15" width="60" as="geometry" />
        </mxCell>
        <mxCell id="KfAJ2f1x3CQTypNjE7IO-101" style="edgeStyle=orthogonalEdgeStyle;rounded=0;orthogonalLoop=1;jettySize=auto;html=1;entryX=0.5;entryY=1;entryDx=0;entryDy=0;" edge="1" parent="1" source="KfAJ2f1x3CQTypNjE7IO-99" target="16FIuzxWoAcxYkZVvPK7-2">
          <mxGeometry relative="1" as="geometry" />
        </mxCell>
        <mxCell id="KfAJ2f1x3CQTypNjE7IO-99" value="Terrestre" style="whiteSpace=wrap;html=1;rounded=0;" vertex="1" parent="1">
          <mxGeometry x="350" y="120" width="80" height="20" as="geometry" />
        </mxCell>
        <mxCell id="KfAJ2f1x3CQTypNjE7IO-102" value="Aereo" style="whiteSpace=wrap;html=1;rounded=0;" vertex="1" parent="1">
          <mxGeometry x="720" y="120" width="80" height="20" as="geometry" />
        </mxCell>
        <mxCell id="KfAJ2f1x3CQTypNjE7IO-103" value="Acuatico" style="whiteSpace=wrap;html=1;rounded=0;" vertex="1" parent="1">
          <mxGeometry x="10" y="120" width="80" height="20" as="geometry" />
        </mxCell>
        <mxCell id="KfAJ2f1x3CQTypNjE7IO-104" value="" style="endArrow=none;html=1;rounded=0;" edge="1" parent="1">
          <mxGeometry width="50" height="50" relative="1" as="geometry">
            <mxPoint x="50" y="110" as="sourcePoint" />
            <mxPoint x="760" y="110" as="targetPoint" />
          </mxGeometry>
        </mxCell>
        <mxCell id="KfAJ2f1x3CQTypNjE7IO-108" value="" style="endArrow=none;html=1;rounded=0;exitX=0.5;exitY=0;exitDx=0;exitDy=0;" edge="1" parent="1" source="KfAJ2f1x3CQTypNjE7IO-103">
          <mxGeometry width="50" height="50" relative="1" as="geometry">
            <mxPoint x="50" y="130" as="sourcePoint" />
            <mxPoint x="50" y="110" as="targetPoint" />
          </mxGeometry>
        </mxCell>
        <mxCell id="KfAJ2f1x3CQTypNjE7IO-109" value="" style="endArrow=none;html=1;rounded=0;" edge="1" parent="1">
          <mxGeometry width="50" height="50" relative="1" as="geometry">
            <mxPoint x="760" y="110" as="sourcePoint" />
            <mxPoint x="760" y="110" as="targetPoint" />
          </mxGeometry>
        </mxCell>
        <mxCell id="KfAJ2f1x3CQTypNjE7IO-111" value="" style="endArrow=none;html=1;rounded=0;exitX=0.5;exitY=0;exitDx=0;exitDy=0;" edge="1" parent="1" source="KfAJ2f1x3CQTypNjE7IO-102">
          <mxGeometry width="50" height="50" relative="1" as="geometry">
            <mxPoint x="690" y="170" as="sourcePoint" />
            <mxPoint x="760" y="110" as="targetPoint" />
          </mxGeometry>
        </mxCell>
        <mxCell id="KfAJ2f1x3CQTypNjE7IO-113" style="edgeStyle=orthogonalEdgeStyle;rounded=0;orthogonalLoop=1;jettySize=auto;html=1;entryX=0.513;entryY=1.117;entryDx=0;entryDy=0;entryPerimeter=0;" edge="1" parent="1" source="KfAJ2f1x3CQTypNjE7IO-8" target="KfAJ2f1x3CQTypNjE7IO-99">
          <mxGeometry relative="1" as="geometry" />
        </mxCell>
        <mxCell id="KfAJ2f1x3CQTypNjE7IO-114" value="" style="endArrow=none;html=1;rounded=0;" edge="1" parent="1">
          <mxGeometry width="50" height="50" relative="1" as="geometry">
            <mxPoint x="250" y="175" as="sourcePoint" />
            <mxPoint x="537.25" y="175" as="targetPoint" />
          </mxGeometry>
        </mxCell>
        <mxCell id="KfAJ2f1x3CQTypNjE7IO-115" value="" style="endArrow=none;html=1;rounded=0;entryX=0.5;entryY=0;entryDx=0;entryDy=0;" edge="1" parent="1">
          <mxGeometry width="50" height="50" relative="1" as="geometry">
            <mxPoint x="250.19" y="175" as="sourcePoint" />
            <mxPoint x="250.19" y="185" as="targetPoint" />
          </mxGeometry>
        </mxCell>
        <mxCell id="KfAJ2f1x3CQTypNjE7IO-120" value="" style="edgeStyle=orthogonalEdgeStyle;rounded=0;orthogonalLoop=1;jettySize=auto;html=1;" edge="1" parent="1" source="KfAJ2f1x3CQTypNjE7IO-116" target="KfAJ2f1x3CQTypNjE7IO-103">
          <mxGeometry relative="1" as="geometry" />
        </mxCell>
        <mxCell id="KfAJ2f1x3CQTypNjE7IO-116" value="Bote" style="whiteSpace=wrap;html=1;rounded=0;" vertex="1" parent="1">
          <mxGeometry x="10" y="162.5" width="80" height="20" as="geometry" />
        </mxCell>
        <mxCell id="KfAJ2f1x3CQTypNjE7IO-119" value="" style="edgeStyle=orthogonalEdgeStyle;rounded=0;orthogonalLoop=1;jettySize=auto;html=1;" edge="1" parent="1" source="KfAJ2f1x3CQTypNjE7IO-118" target="KfAJ2f1x3CQTypNjE7IO-102">
          <mxGeometry relative="1" as="geometry" />
        </mxCell>
        <mxCell id="KfAJ2f1x3CQTypNjE7IO-118" value="Avion" style="whiteSpace=wrap;html=1;rounded=0;" vertex="1" parent="1">
          <mxGeometry x="720" y="162.5" width="80" height="20" as="geometry" />
        </mxCell>
        <mxCell id="KfAJ2f1x3CQTypNjE7IO-145" style="edgeStyle=orthogonalEdgeStyle;rounded=0;orthogonalLoop=1;jettySize=auto;html=1;entryX=0.417;entryY=0.017;entryDx=0;entryDy=0;entryPerimeter=0;" edge="1" parent="1" source="KfAJ2f1x3CQTypNjE7IO-121" target="KfAJ2f1x3CQTypNjE7IO-140">
          <mxGeometry relative="1" as="geometry">
            <Array as="points">
              <mxPoint x="321" y="264" />
              <mxPoint x="321" y="213" />
            </Array>
          </mxGeometry>
        </mxCell>
        <mxCell id="KfAJ2f1x3CQTypNjE7IO-121" value="Ruedas" style="whiteSpace=wrap;html=1;rounded=0;" vertex="1" parent="1">
          <mxGeometry x="674.37" y="253.75" width="80" height="20" as="geometry" />
        </mxCell>
        <mxCell id="KfAJ2f1x3CQTypNjE7IO-128" value="" style="edgeStyle=orthogonalEdgeStyle;rounded=0;orthogonalLoop=1;jettySize=auto;html=1;" edge="1" parent="1" source="KfAJ2f1x3CQTypNjE7IO-122" target="KfAJ2f1x3CQTypNjE7IO-121">
          <mxGeometry relative="1" as="geometry" />
        </mxCell>
        <mxCell id="KfAJ2f1x3CQTypNjE7IO-122" value="C/Llantas" style="whiteSpace=wrap;html=1;rounded=0;" vertex="1" parent="1">
          <mxGeometry x="630" y="315" width="80" height="20" as="geometry" />
        </mxCell>
        <mxCell id="KfAJ2f1x3CQTypNjE7IO-129" value="" style="edgeStyle=orthogonalEdgeStyle;rounded=0;orthogonalLoop=1;jettySize=auto;html=1;" edge="1" parent="1" source="KfAJ2f1x3CQTypNjE7IO-123" target="KfAJ2f1x3CQTypNjE7IO-121">
          <mxGeometry relative="1" as="geometry" />
        </mxCell>
        <mxCell id="KfAJ2f1x3CQTypNjE7IO-123" value="S/Llantas" style="whiteSpace=wrap;html=1;rounded=0;" vertex="1" parent="1">
          <mxGeometry x="730" y="315" width="80" height="20" as="geometry" />
        </mxCell>
        <mxCell id="KfAJ2f1x3CQTypNjE7IO-132" value="" style="ellipse;whiteSpace=wrap;html=1;aspect=fixed;" vertex="1" parent="1">
          <mxGeometry x="674.37" y="223.75" width="10" height="10" as="geometry" />
        </mxCell>
        <mxCell id="KfAJ2f1x3CQTypNjE7IO-133" value="" style="endArrow=none;html=1;rounded=0;entryX=0.5;entryY=1;entryDx=0;entryDy=0;exitX=0.061;exitY=0.002;exitDx=0;exitDy=0;exitPerimeter=0;" edge="1" parent="1" target="KfAJ2f1x3CQTypNjE7IO-132">
          <mxGeometry width="50" height="50" relative="1" as="geometry">
            <mxPoint x="678.87" y="253.75" as="sourcePoint" />
            <mxPoint x="676.87" y="243.75" as="targetPoint" />
          </mxGeometry>
        </mxCell>
        <mxCell id="KfAJ2f1x3CQTypNjE7IO-135" value="&lt;font style=&quot;font-size: 9px;&quot;&gt;Tipo de rodado&lt;/font&gt;" style="text;html=1;align=center;verticalAlign=middle;whiteSpace=wrap;rounded=0;" vertex="1" parent="1">
          <mxGeometry x="602.1800000000001" y="212.5" width="65.63" height="31.25" as="geometry" />
        </mxCell>
        <mxCell id="KfAJ2f1x3CQTypNjE7IO-137" style="edgeStyle=orthogonalEdgeStyle;rounded=0;orthogonalLoop=1;jettySize=auto;html=1;entryX=0.5;entryY=1;entryDx=0;entryDy=0;" edge="1" parent="1" source="KfAJ2f1x3CQTypNjE7IO-136" target="KfAJ2f1x3CQTypNjE7IO-22">
          <mxGeometry relative="1" as="geometry">
            <Array as="points">
              <mxPoint x="199" y="40" />
              <mxPoint x="75" y="40" />
            </Array>
          </mxGeometry>
        </mxCell>
        <mxCell id="KfAJ2f1x3CQTypNjE7IO-136" value="Cantidad" style="ellipse;whiteSpace=wrap;html=1;" vertex="1" parent="1">
          <mxGeometry x="164.37" y="55" width="70" height="40" as="geometry" />
        </mxCell>
        <mxCell id="KfAJ2f1x3CQTypNjE7IO-138" value="" style="html=1;whiteSpace=wrap;aspect=fixed;shape=isoRectangle;rotation=90;" vertex="1" parent="1">
          <mxGeometry x="242.08999999999997" y="208.75000000000003" width="18.33" height="11" as="geometry" />
        </mxCell>
        <mxCell id="KfAJ2f1x3CQTypNjE7IO-140" value="" style="html=1;whiteSpace=wrap;aspect=fixed;shape=isoRectangle;rotation=90;" vertex="1" parent="1">
          <mxGeometry x="312.08" y="208.75000000000003" width="18.33" height="11" as="geometry" />
        </mxCell>
        <mxCell id="KfAJ2f1x3CQTypNjE7IO-141" value="" style="html=1;whiteSpace=wrap;aspect=fixed;shape=isoRectangle;rotation=90;" vertex="1" parent="1">
          <mxGeometry x="382.09" y="208.75000000000003" width="18.33" height="11" as="geometry" />
        </mxCell>
        <mxCell id="KfAJ2f1x3CQTypNjE7IO-142" value="" style="html=1;whiteSpace=wrap;aspect=fixed;shape=isoRectangle;rotation=90;" vertex="1" parent="1">
          <mxGeometry x="452.09" y="208.75000000000003" width="18.33" height="11" as="geometry" />
        </mxCell>
        <mxCell id="KfAJ2f1x3CQTypNjE7IO-143" value="" style="html=1;whiteSpace=wrap;aspect=fixed;shape=isoRectangle;rotation=90;" vertex="1" parent="1">
          <mxGeometry x="522.0899999999999" y="208.50000000000003" width="18.33" height="11" as="geometry" />
        </mxCell>
        <mxCell id="KfAJ2f1x3CQTypNjE7IO-151" value="" style="html=1;whiteSpace=wrap;aspect=fixed;shape=isoRectangle;rotation=90;" vertex="1" parent="1">
          <mxGeometry x="750.8399999999999" y="186.00000000000003" width="18.33" height="11" as="geometry" />
        </mxCell>
        <mxCell id="KfAJ2f1x3CQTypNjE7IO-153" style="edgeStyle=orthogonalEdgeStyle;rounded=0;orthogonalLoop=1;jettySize=auto;html=1;entryX=1.005;entryY=0.44;entryDx=0;entryDy=0;entryPerimeter=0;" edge="1" parent="1" source="KfAJ2f1x3CQTypNjE7IO-121" target="KfAJ2f1x3CQTypNjE7IO-151">
          <mxGeometry relative="1" as="geometry">
            <Array as="points">
              <mxPoint x="714" y="240" />
              <mxPoint x="760" y="240" />
              <mxPoint x="760" y="230" />
              <mxPoint x="761" y="230" />
            </Array>
          </mxGeometry>
        </mxCell>
        <mxCell id="KfAJ2f1x3CQTypNjE7IO-156" style="edgeStyle=orthogonalEdgeStyle;rounded=0;orthogonalLoop=1;jettySize=auto;html=1;entryX=1;entryY=0.5;entryDx=0;entryDy=0;" edge="1" parent="1" source="KfAJ2f1x3CQTypNjE7IO-155" target="KfAJ2f1x3CQTypNjE7IO-102">
          <mxGeometry relative="1" as="geometry">
            <mxPoint x="760" y="140" as="targetPoint" />
            <Array as="points">
              <mxPoint x="820" y="173" />
              <mxPoint x="820" y="130" />
            </Array>
          </mxGeometry>
        </mxCell>
        <mxCell id="KfAJ2f1x3CQTypNjE7IO-155" value="HidroAvion" style="whiteSpace=wrap;html=1;rounded=0;" vertex="1" parent="1">
          <mxGeometry x="830" y="162.5" width="80" height="20" as="geometry" />
        </mxCell>
        <mxCell id="KfAJ2f1x3CQTypNjE7IO-157" value="C/Motor" style="whiteSpace=wrap;html=1;rounded=0;" vertex="1" parent="1">
          <mxGeometry x="302.09" y="300" width="80" height="20" as="geometry" />
        </mxCell>
        <mxCell id="KfAJ2f1x3CQTypNjE7IO-173" value="S/Motor" style="whiteSpace=wrap;html=1;rounded=0;" vertex="1" parent="1">
          <mxGeometry x="390.41999999999996" y="300" width="80" height="20" as="geometry" />
        </mxCell>
        <mxCell id="KfAJ2f1x3CQTypNjE7IO-175" value="" style="endArrow=none;html=1;rounded=0;exitX=0.5;exitY=0;exitDx=0;exitDy=0;" edge="1" parent="1">
          <mxGeometry width="50" height="50" relative="1" as="geometry">
            <mxPoint x="341.0899999999999" y="300" as="sourcePoint" />
            <mxPoint x="391" y="263" as="targetPoint" />
            <Array as="points">
              <mxPoint x="341" y="280" />
              <mxPoint x="391" y="280" />
            </Array>
          </mxGeometry>
        </mxCell>
        <mxCell id="KfAJ2f1x3CQTypNjE7IO-176" value="" style="endArrow=none;html=1;rounded=0;entryX=0.5;entryY=0;entryDx=0;entryDy=0;" edge="1" parent="1">
          <mxGeometry width="50" height="50" relative="1" as="geometry">
            <mxPoint x="390.42" y="279.75" as="sourcePoint" />
            <mxPoint x="430.4200000000001" y="299" as="targetPoint" />
            <Array as="points">
              <mxPoint x="430" y="280" />
            </Array>
          </mxGeometry>
        </mxCell>
        <mxCell id="KfAJ2f1x3CQTypNjE7IO-186" style="edgeStyle=orthogonalEdgeStyle;rounded=0;orthogonalLoop=1;jettySize=auto;html=1;entryX=0.5;entryY=1;entryDx=0;entryDy=0;" edge="1" parent="1" source="KfAJ2f1x3CQTypNjE7IO-177" target="KfAJ2f1x3CQTypNjE7IO-157">
          <mxGeometry relative="1" as="geometry">
            <mxPoint x="340" y="340" as="targetPoint" />
          </mxGeometry>
        </mxCell>
        <mxCell id="KfAJ2f1x3CQTypNjE7IO-188" style="edgeStyle=orthogonalEdgeStyle;rounded=0;orthogonalLoop=1;jettySize=auto;html=1;" edge="1" parent="1" source="KfAJ2f1x3CQTypNjE7IO-177">
          <mxGeometry relative="1" as="geometry">
            <mxPoint x="760" y="200" as="targetPoint" />
            <Array as="points">
              <mxPoint x="830" y="440" />
              <mxPoint x="830" y="200" />
            </Array>
          </mxGeometry>
        </mxCell>
        <mxCell id="KfAJ2f1x3CQTypNjE7IO-189" style="edgeStyle=orthogonalEdgeStyle;rounded=0;orthogonalLoop=1;jettySize=auto;html=1;" edge="1" parent="1" source="KfAJ2f1x3CQTypNjE7IO-177">
          <mxGeometry relative="1" as="geometry">
            <mxPoint x="870" y="200" as="targetPoint" />
          </mxGeometry>
        </mxCell>
        <mxCell id="KfAJ2f1x3CQTypNjE7IO-177" value="Motor" style="whiteSpace=wrap;html=1;rounded=0;" vertex="1" parent="1">
          <mxGeometry x="721.67" y="430" width="80" height="20" as="geometry" />
        </mxCell>
        <mxCell id="KfAJ2f1x3CQTypNjE7IO-178" value="" style="edgeStyle=orthogonalEdgeStyle;rounded=0;orthogonalLoop=1;jettySize=auto;html=1;" edge="1" parent="1" source="KfAJ2f1x3CQTypNjE7IO-179" target="KfAJ2f1x3CQTypNjE7IO-177">
          <mxGeometry relative="1" as="geometry" />
        </mxCell>
        <mxCell id="KfAJ2f1x3CQTypNjE7IO-179" value="Electrico" style="whiteSpace=wrap;html=1;rounded=0;" vertex="1" parent="1">
          <mxGeometry x="677.5" y="492.5" width="80" height="20" as="geometry" />
        </mxCell>
        <mxCell id="KfAJ2f1x3CQTypNjE7IO-180" value="" style="edgeStyle=orthogonalEdgeStyle;rounded=0;orthogonalLoop=1;jettySize=auto;html=1;" edge="1" parent="1" source="KfAJ2f1x3CQTypNjE7IO-181" target="KfAJ2f1x3CQTypNjE7IO-177">
          <mxGeometry relative="1" as="geometry" />
        </mxCell>
        <mxCell id="KfAJ2f1x3CQTypNjE7IO-181" value="Nafta" style="whiteSpace=wrap;html=1;rounded=0;" vertex="1" parent="1">
          <mxGeometry x="777.5" y="492.5" width="80" height="20" as="geometry" />
        </mxCell>
        <mxCell id="KfAJ2f1x3CQTypNjE7IO-182" style="edgeStyle=orthogonalEdgeStyle;rounded=0;orthogonalLoop=1;jettySize=auto;html=1;entryX=0.5;entryY=1;entryDx=0;entryDy=0;" edge="1" parent="1" source="KfAJ2f1x3CQTypNjE7IO-183" target="KfAJ2f1x3CQTypNjE7IO-177">
          <mxGeometry relative="1" as="geometry">
            <Array as="points">
              <mxPoint x="617.5" y="471.25" />
              <mxPoint x="761.5" y="471.25" />
            </Array>
          </mxGeometry>
        </mxCell>
        <mxCell id="KfAJ2f1x3CQTypNjE7IO-183" value="Hibrido" style="whiteSpace=wrap;html=1;rounded=0;" vertex="1" parent="1">
          <mxGeometry x="577.5" y="492.5" width="80" height="20" as="geometry" />
        </mxCell>
        <mxCell id="KfAJ2f1x3CQTypNjE7IO-184" style="edgeStyle=orthogonalEdgeStyle;rounded=0;orthogonalLoop=1;jettySize=auto;html=1;entryX=0.5;entryY=1;entryDx=0;entryDy=0;" edge="1" parent="1" target="KfAJ2f1x3CQTypNjE7IO-177">
          <mxGeometry relative="1" as="geometry">
            <mxPoint x="917.5" y="492.5" as="sourcePoint" />
            <Array as="points">
              <mxPoint x="917.5" y="471.25" />
              <mxPoint x="761.5" y="471.25" />
            </Array>
          </mxGeometry>
        </mxCell>
        <mxCell id="KfAJ2f1x3CQTypNjE7IO-185" value="GNC" style="whiteSpace=wrap;html=1;rounded=0;" vertex="1" parent="1">
          <mxGeometry x="880" y="492.5" width="80" height="20" as="geometry" />
        </mxCell>
        <mxCell id="KfAJ2f1x3CQTypNjE7IO-187" value="" style="html=1;whiteSpace=wrap;aspect=fixed;shape=isoRectangle;rotation=90;" vertex="1" parent="1">
          <mxGeometry x="332.49999999999994" y="324" width="18.33" height="11" as="geometry" />
        </mxCell>
        <mxCell id="KfAJ2f1x3CQTypNjE7IO-190" value="" style="html=1;whiteSpace=wrap;aspect=fixed;shape=isoRectangle;rotation=90;" vertex="1" parent="1">
          <mxGeometry x="861.6699999999998" y="186.00000000000003" width="18.33" height="11" as="geometry" />
        </mxCell>
        <mxCell id="KfAJ2f1x3CQTypNjE7IO-191" value="" style="endArrow=none;html=1;rounded=0;entryX=0;entryY=0.5;entryDx=0;entryDy=0;" edge="1" parent="1" target="KfAJ2f1x3CQTypNjE7IO-32">
          <mxGeometry width="50" height="50" relative="1" as="geometry">
            <mxPoint x="460" y="50" as="sourcePoint" />
            <mxPoint x="510" as="targetPoint" />
          </mxGeometry>
        </mxCell>
      </root>
    </mxGraphModel>
  </diagram>
</mxfile>
